<svg version="1.0" xmlns="http://www.w3.org/2000/svg" width="2400.000000pt" height="1056.000000pt"
        viewBox="0 0 2400.000000 1056.000000" preserveAspectRatio="xMidYMid meet">

        <g transform="translate(0.000000,1056.000000) scale(0.100000,-0.100000)" fill="#000000" stroke="none">
                <path d="M5970 9992 c-43 -22 -157 -99 -162 -109 -1 -5 -23 -24 -48 -43 -25
-19 -50 -39 -56 -45 -21 -18 -49 -39 -99 -75 -63 -44 -62 -43 -110 -82 -22
-18 -44 -36 -50 -40 -5 -5 -28 -23 -51 -40 -22 -18 -76 -60 -120 -93 -43 -33
-81 -62 -84 -65 -3 -3 -24 -18 -48 -34 -24 -16 -46 -34 -50 -40 -8 -12 -37
-35 -209 -165 -65 -49 -140 -108 -168 -130 -198 -158 -374 -285 -406 -292 -20
-5 -103 -8 -185 -7 -193 3 -272 -15 -361 -80 -55 -40 -67 -56 -110 -141 l-48
-96 0 -1445 0 -1445 28 -60 c60 -132 72 -148 143 -198 59 -41 80 -50 139 -58
44 -6 848 -8 2145 -7 1969 3 2077 4 2110 21 19 10 57 29 83 43 28 14 55 37 65
56 9 17 29 45 43 62 14 17 31 47 38 65 18 55 17 2975 -2 3029 -17 49 -85 131
-141 169 -22 15 -47 34 -54 40 -7 7 -25 15 -40 18 -15 3 -45 11 -67 17 -22 6
-111 10 -200 10 -89 -1 -176 4 -195 10 -34 10 -141 83 -148 100 -2 5 -25 23
-50 40 -26 17 -49 34 -52 37 -3 3 -41 33 -84 66 -44 33 -97 74 -117 90 -20 17
-49 39 -63 49 -15 11 -36 27 -46 35 -35 30 -56 46 -105 81 -48 33 -74 53 -99
75 -6 6 -31 26 -56 45 -56 43 -79 62 -94 75 -6 6 -33 26 -61 45 -49 35 -70 51
-105 81 -10 8 -31 24 -46 35 -14 10 -43 33 -63 49 -20 17 -73 57 -117 90 -43
33 -81 63 -84 66 -3 3 -26 20 -52 38 -27 17 -48 35 -48 39 0 4 -12 15 -27 24
-16 9 -45 32 -65 52 -64 61 -89 67 -148 38z m133 -330 c59 -55 68 -63 152
-126 33 -25 65 -49 70 -54 6 -4 31 -22 57 -40 25 -17 48 -35 50 -39 1 -5 23
-24 48 -43 25 -19 47 -37 50 -40 5 -5 116 -89 165 -124 14 -11 35 -27 45 -35
10 -9 27 -23 37 -31 10 -8 32 -26 49 -40 17 -14 43 -34 59 -45 15 -11 42 -32
59 -46 17 -14 47 -36 66 -49 19 -13 37 -27 40 -30 3 -4 26 -21 53 -39 26 -17
47 -36 47 -40 0 -4 23 -20 51 -35 39 -22 49 -33 47 -49 l-3 -22 -1224 -2
c-885 -2 -1228 0 -1238 8 -23 20 -14 39 27 55 22 9 46 24 53 33 11 15 105 89
168 131 12 8 40 30 63 49 39 32 286 220 330 251 11 8 32 25 46 38 14 13 57 46
95 73 80 57 123 89 139 104 6 6 31 26 56 45 25 19 47 37 50 40 3 3 34 27 70
53 36 27 73 55 83 63 21 17 55 32 75 33 7 1 37 -21 65 -47z m1880 -1353 c15
-6 27 -15 27 -20 0 -5 0 -603 0 -1329 0 -726 0 -1324 0 -1329 0 -25 -64 -33
-237 -29 -193 3 -202 6 -241 62 -12 18 -30 41 -40 52 -9 10 -50 65 -90 120
-40 56 -79 108 -88 115 -8 7 -24 29 -34 49 -10 20 -26 42 -35 50 -9 8 -25 30
-35 49 -10 20 -37 56 -59 80 -23 24 -41 49 -41 56 0 6 -12 22 -26 36 -14 13
-32 39 -41 57 -20 43 -64 74 -132 95 -65 21 -102 21 -144 3 -18 -8 -184 -166
-377 -360 -307 -309 -347 -346 -370 -341 -26 6 -37 17 -380 375 -113 118 -232
242 -265 276 -71 73 -132 138 -240 258 -44 49 -98 108 -120 131 -129 136 -290
308 -305 328 -10 13 -37 32 -59 42 -23 10 -41 21 -41 26 0 13 -58 21 -100 14
-50 -8 -107 -61 -180 -165 -13 -19 -54 -72 -90 -117 -90 -113 -90 -113 -140
-192 -48 -75 -70 -86 -88 -46 -13 27 -19 1606 -6 1638 3 9 17 20 30 24 39 13
3914 5 3947 -8z" />
                <path d="M6965 8081 c-63 -9 -82 -19 -157 -89 -86 -81 -100 -114 -100 -231 0
-123 14 -157 103 -242 76 -73 113 -89 207 -89 106 0 154 16 215 71 30 27 60
63 68 81 7 18 22 46 33 61 18 24 21 43 21 116 -1 83 -3 90 -41 156 -73 128
-198 187 -349 166z" />
                <path d="M6340 8013 c-25 -7 -64 -26 -90 -44 -48 -32 -66 -32 -136 2 -36 18
-88 34 -115 37 -43 4 -51 1 -79 -26 -32 -32 -38 -68 -18 -105 14 -28 27 -38
108 -84 89 -52 117 -63 155 -63 37 0 141 41 194 77 19 13 38 23 43 23 6 0 22
9 38 20 48 34 47 112 -2 143 -26 17 -76 27 -98 20z" />
                <path d="M5462 7225 c-26 -21 -32 -34 -32 -65 0 -31 7 -44 40 -74 22 -20 46
-36 53 -36 22 0 97 -40 129 -68 45 -41 70 -44 125 -15 26 14 50 29 53 32 3 3
34 21 70 39 104 54 141 122 94 173 -32 36 -49 40 -91 23 -61 -26 -145 -46
-188 -45 -22 0 -71 12 -110 27 -105 38 -108 39 -143 9z" />
                <path d="M7239 7119 c-51 -19 -67 -109 -25 -148 13 -12 39 -26 59 -32 20 -5
68 -35 108 -66 40 -30 83 -55 95 -55 13 0 42 16 65 36 24 20 46 36 50 36 5 0
25 11 45 25 20 14 45 25 55 25 9 0 31 12 48 26 34 28 41 71 20 118 -25 53
-115 49 -227 -9 l-52 -28 -58 30 c-31 17 -74 33 -95 37 -21 4 -44 9 -50 11 -7
2 -24 -1 -38 -6z" />
                <path d="M17955 9998 c-33 -18 -115 -111 -121 -138 -4 -14 -17 -36 -29 -50
-13 -14 -30 -42 -39 -63 -9 -21 -34 -59 -56 -84 -22 -25 -40 -53 -40 -63 0 -9
-8 -25 -18 -36 -10 -10 -32 -44 -50 -75 -18 -31 -39 -63 -48 -70 -9 -7 -27
-37 -40 -66 -12 -29 -27 -53 -32 -53 -5 0 -22 -24 -37 -52 -16 -29 -39 -66
-52 -81 -12 -16 -23 -34 -23 -40 -1 -7 -23 -41 -50 -77 -28 -36 -50 -72 -50
-80 0 -8 -16 -35 -35 -59 -19 -24 -35 -47 -35 -51 0 -4 -14 -25 -31 -46 -18
-22 -40 -57 -50 -80 -10 -22 -27 -48 -38 -58 -11 -10 -30 -37 -42 -60 -25 -48
-107 -175 -127 -195 -7 -7 -24 -36 -38 -64 -15 -28 -33 -57 -40 -65 -8 -8 -23
-31 -34 -51 -10 -21 -26 -44 -35 -51 -9 -8 -30 -39 -46 -69 -35 -65 -86 -142
-123 -187 -48 -59 -31 -120 49 -172 11 -7 52 -35 90 -62 39 -27 94 -66 124
-87 29 -21 59 -43 65 -48 6 -6 54 -39 106 -74 52 -35 109 -77 125 -92 17 -16
35 -29 39 -29 4 0 25 -13 45 -29 20 -15 50 -36 68 -44 17 -9 51 -34 76 -54 24
-21 57 -46 73 -55 93 -56 133 -84 172 -119 25 -21 50 -39 56 -39 6 0 25 -12
41 -26 17 -14 46 -34 65 -44 19 -10 52 -34 74 -54 21 -20 44 -36 50 -36 7 0
27 -13 46 -30 49 -41 82 -39 137 10 25 22 51 40 58 40 6 0 20 9 31 21 10 12
37 30 59 41 22 11 51 31 65 43 14 13 44 33 66 44 23 12 50 31 60 42 10 11 32
26 48 34 17 8 45 27 61 41 17 14 50 38 75 52 25 15 51 32 57 38 7 7 29 22 50
35 21 12 48 32 60 44 12 12 39 30 60 41 21 10 81 51 133 90 52 39 109 79 125
88 17 9 57 36 90 61 100 75 234 165 244 165 6 0 18 11 26 24 14 22 14 28 -5
77 -11 30 -35 71 -54 93 -19 21 -40 50 -47 65 -16 31 -110 174 -119 181 -3 3
-21 32 -40 64 -18 33 -40 67 -48 75 -18 21 -69 100 -107 167 -16 29 -40 63
-51 76 -12 13 -29 37 -37 54 -9 17 -23 36 -31 44 -9 7 -28 36 -42 64 -14 28
-35 61 -47 74 -12 12 -33 42 -47 66 -50 86 -86 140 -112 171 -16 18 -28 38
-28 45 0 12 -33 64 -57 88 -6 7 -24 35 -39 62 -15 28 -30 50 -34 50 -5 0 -18
21 -30 48 -12 26 -32 58 -45 72 -13 14 -31 41 -41 60 -11 19 -31 51 -45 70
-15 19 -30 45 -33 57 -4 13 -27 46 -52 75 -24 28 -44 57 -44 64 0 7 -11 25
-24 41 -13 15 -31 44 -39 63 -17 39 -90 121 -124 139 -27 14 -62 14 -88 -1z" />
                <path d="M11745 9291 c-41 -10 -55 -19 -107 -65 -23 -22 -65 -60 -93 -85 -27
-24 -82 -74 -120 -110 -39 -36 -108 -100 -154 -141 -46 -41 -89 -79 -95 -85
-15 -13 -78 -68 -150 -130 -32 -27 -66 -59 -75 -69 -9 -11 -30 -35 -47 -55
-39 -45 -47 -70 -38 -118 8 -40 66 -104 194 -213 36 -30 88 -75 115 -101 28
-25 68 -62 90 -80 22 -19 42 -36 45 -39 3 -3 34 -30 70 -60 36 -30 67 -57 70
-60 3 -3 39 -34 80 -69 41 -36 89 -78 105 -94 50 -49 128 -97 158 -97 42 0 92
27 106 56 15 34 14 105 -3 145 -17 40 -39 65 -121 135 -117 99 -201 173 -245
214 -25 23 -62 53 -82 66 -42 27 -49 57 -18 74 14 7 412 11 1313 10 711 0
1307 3 1325 6 47 10 78 46 90 109 15 74 3 101 -66 150 l-57 40 -1288 1 c-708
1 -1294 5 -1302 8 -8 3 -15 18 -15 33 0 21 9 34 38 53 40 27 127 95 159 126
11 10 44 39 74 64 137 116 216 194 229 226 16 39 -14 105 -62 136 -30 19 -85
28 -123 19z" />
                <path d="M13205 7618 c-34 -17 -67 -66 -72 -108 -8 -58 12 -83 196 -243 61
-53 169 -148 210 -186 14 -12 38 -29 53 -37 46 -24 50 -94 5 -94 -12 -1 -597
0 -1299 0 -1295 1 -1340 0 -1375 -35 -21 -22 -53 -104 -53 -137 0 -36 33 -99
63 -119 19 -12 216 -15 1352 -19 732 -3 1338 -9 1348 -14 28 -14 20 -43 -20
-67 -35 -22 -339 -262 -408 -323 -16 -14 -32 -26 -35 -26 -15 0 -40 -63 -40
-102 0 -79 45 -108 160 -107 75 0 110 16 172 74 42 40 150 138 274 250 58 52
256 238 328 307 l91 87 0 91 0 91 -35 32 c-19 18 -93 84 -165 147 -71 63 -132
117 -135 120 -3 3 -45 39 -95 80 -110 92 -145 122 -210 181 -27 25 -69 63 -93
84 -78 71 -165 100 -217 73z" />
                <path d="M16424 7575 c-3 -7 5 -29 18 -47 13 -18 30 -45 38 -60 7 -15 21 -36
30 -45 22 -24 88 -124 129 -195 18 -32 36 -58 40 -58 4 0 14 -12 22 -27 8 -15
31 -54 52 -85 20 -31 37 -61 37 -66 0 -4 15 -26 33 -48 19 -21 45 -59 59 -84
14 -25 47 -78 74 -118 27 -40 56 -86 65 -102 20 -37 131 -203 140 -210 3 -3
18 -30 33 -60 15 -30 38 -66 50 -80 13 -14 29 -36 36 -50 7 -14 38 -62 69
-108 31 -46 67 -105 81 -130 14 -26 40 -68 58 -92 19 -25 38 -56 44 -70 5 -14
20 -36 32 -50 13 -14 26 -36 29 -50 4 -14 24 -44 46 -67 22 -23 43 -55 47 -70
4 -16 17 -39 29 -53 13 -14 35 -49 49 -77 15 -29 31 -53 37 -53 5 0 19 -21 31
-47 11 -27 45 -74 76 -105 51 -52 60 -58 98 -58 36 0 47 6 77 39 19 21 52 65
72 97 21 33 41 61 44 64 4 3 22 32 41 65 19 33 37 62 41 65 6 4 28 38 87 133
9 16 49 77 87 135 39 59 82 127 97 152 14 25 38 59 52 75 14 17 26 34 26 38 0
7 37 64 50 77 3 3 11 15 18 28 6 12 18 32 25 45 6 12 21 33 33 47 11 14 49 72
84 130 35 58 73 116 84 130 12 14 26 34 32 45 26 48 39 70 44 75 13 13 50 70
50 77 0 4 12 22 26 38 14 17 38 50 52 75 15 25 58 93 97 152 38 59 93 143 120
187 28 44 53 81 58 81 4 0 7 4 7 10 0 12 58 103 99 154 17 21 31 44 31 51 0 6
11 22 25 35 30 29 30 64 -1 68 -13 2 -27 -6 -36 -20 -9 -13 -34 -32 -57 -43
-23 -10 -41 -22 -41 -27 0 -4 -24 -23 -52 -42 -29 -18 -62 -43 -72 -55 -11
-11 -24 -21 -30 -21 -6 0 -40 -22 -76 -50 -36 -27 -70 -49 -76 -50 -6 0 -21
-12 -35 -26 -13 -14 -38 -32 -55 -40 -17 -8 -40 -23 -50 -32 -11 -10 -39 -29
-64 -44 -25 -14 -56 -36 -70 -48 -28 -25 -72 -56 -164 -113 -34 -21 -63 -42
-66 -46 -3 -4 -27 -23 -55 -41 -27 -19 -55 -39 -61 -45 -6 -5 -30 -21 -53 -35
-23 -14 -62 -40 -86 -57 -24 -18 -48 -33 -53 -33 -5 0 -19 -11 -32 -25 -23
-24 -85 -65 -173 -112 -73 -40 -141 -25 -252 57 -22 17 -98 68 -168 116 -71
47 -136 93 -145 101 -10 8 -65 47 -124 87 -59 39 -148 99 -198 134 -50 34 -93
62 -97 62 -3 0 -22 14 -42 30 -45 39 -46 39 -106 77 -27 18 -55 36 -61 41 -5
5 -20 15 -33 21 -12 7 -30 19 -39 26 -24 20 -95 71 -187 134 -44 30 -82 57
-85 61 -3 4 -19 14 -36 23 -17 9 -36 23 -43 31 -17 20 -60 21 -67 1z" />
                <path d="M20570 4934 c-150 -18 -382 -41 -545 -54 -77 -6 -189 -22 -250 -36
-60 -13 -178 -33 -262 -43 -92 -12 -169 -28 -195 -40 -24 -11 -82 -29 -128
-40 -47 -12 -98 -28 -115 -36 -16 -8 -70 -26 -120 -40 -49 -15 -103 -32 -120
-40 -113 -51 -294 -138 -315 -151 -14 -8 -38 -20 -54 -26 -57 -21 -229 -109
-302 -153 -40 -25 -77 -45 -82 -45 -5 0 -18 -10 -30 -23 -11 -12 -47 -36 -79
-52 -72 -36 -121 -73 -196 -145 -31 -30 -72 -63 -89 -72 -79 -43 -228 -197
-264 -273 -9 -19 -19 -35 -23 -35 -4 0 -18 -24 -30 -52 -13 -29 -35 -78 -50
-108 -22 -47 -26 -67 -25 -136 2 -69 7 -92 39 -166 21 -47 48 -98 61 -113 13
-16 24 -32 24 -37 0 -16 120 -126 155 -142 19 -9 40 -22 47 -29 26 -26 115
-83 183 -118 41 -21 71 -43 73 -54 5 -23 -18 -65 -35 -65 -7 0 -13 -4 -13 -9
0 -11 -18 -18 -104 -41 -38 -10 -83 -29 -100 -42 -28 -21 -41 -23 -141 -23
-60 0 -122 4 -137 8 -40 11 -244 218 -468 477 -309 357 -775 812 -1088 1064
-65 52 -187 116 -272 141 -13 4 -30 13 -37 21 -16 15 -99 40 -168 49 -27 3
-84 15 -125 27 -66 18 -91 20 -205 14 -110 -6 -146 -12 -237 -42 -234 -76
-444 -226 -519 -370 -19 -36 -44 -84 -56 -107 -12 -23 -25 -60 -28 -82 -4 -22
-13 -53 -20 -70 -42 -93 -46 -124 -39 -279 6 -150 6 -151 -17 -172 -24 -22
-86 -31 -349 -49 -89 -6 -206 -31 -227 -47 -7 -6 -63 -23 -124 -38 -62 -16
-124 -37 -138 -47 -14 -10 -48 -30 -76 -43 -27 -14 -56 -31 -63 -38 -8 -7 -35
-24 -61 -38 -125 -66 -139 -78 -259 -211 -87 -95 -141 -163 -142 -176 0 -4
-11 -24 -25 -45 -17 -27 -28 -66 -40 -141 -20 -136 -19 -182 4 -259 17 -56 30
-74 113 -159 51 -52 115 -110 141 -130 54 -40 209 -118 312 -157 39 -15 78
-31 87 -36 10 -6 73 -24 140 -41 68 -17 128 -34 133 -39 6 -4 21 -10 35 -13
33 -7 218 -58 350 -96 58 -17 111 -31 118 -31 8 0 28 -7 45 -15 18 -8 91 -30
162 -49 72 -19 144 -39 160 -45 17 -6 77 -24 135 -40 58 -16 148 -41 200 -55
52 -15 129 -37 170 -50 41 -13 118 -34 170 -46 52 -12 122 -31 155 -41 33 -10
105 -27 160 -39 55 -11 134 -31 175 -45 41 -13 120 -31 175 -39 55 -9 116 -20
135 -25 94 -26 124 -32 240 -51 69 -11 142 -24 163 -30 20 -5 54 -15 75 -20
20 -6 120 -20 220 -31 101 -11 225 -29 275 -40 51 -10 175 -26 277 -34 350
-28 555 -46 710 -61 127 -13 327 -15 1115 -15 1011 0 975 -1 1190 45 39 8 138
24 220 35 83 12 169 28 191 36 23 7 99 23 170 35 71 12 158 30 194 41 36 11
120 29 187 40 67 11 150 28 183 39 33 11 117 29 185 40 69 11 150 29 182 39
32 11 87 25 123 31 117 20 215 42 225 49 6 5 37 13 70 19 33 7 96 19 140 27
44 9 103 22 131 30 29 8 121 29 205 45 85 17 170 36 189 42 92 29 116 38 195
74 19 9 61 44 93 78 47 51 62 76 80 133 19 60 21 78 12 119 -26 128 -43 160
-103 200 -23 16 -48 35 -55 42 -70 65 -306 60 -531 -13 -42 -13 -110 -29 -151
-36 -41 -6 -115 -24 -165 -39 -49 -15 -124 -33 -165 -40 -41 -7 -118 -25 -170
-40 -52 -15 -126 -33 -165 -40 -78 -13 -140 -28 -170 -40 -35 -15 -88 -28
-165 -40 -41 -6 -111 -23 -155 -36 -44 -14 -129 -33 -190 -44 -60 -10 -139
-28 -175 -40 -36 -11 -130 -32 -210 -46 -80 -13 -176 -31 -215 -39 -205 -43
-668 -65 -1390 -67 -655 -1 -1466 36 -1715 78 -47 7 -186 23 -310 34 -247 22
-267 25 -355 45 -33 8 -109 22 -170 30 -60 9 -168 29 -240 45 -71 16 -166 34
-210 41 -44 7 -101 20 -128 30 -26 11 -104 32 -172 49 -69 16 -133 34 -143 39
-9 5 -64 19 -122 31 -58 12 -145 35 -195 51 -87 27 -129 39 -405 114 -68 19
-134 39 -145 44 -20 11 -117 38 -165 48 -14 3 -52 13 -85 24 -56 18 -176 52
-395 113 -90 25 -213 62 -360 107 -36 11 -84 29 -107 40 -24 10 -48 19 -53 19
-24 0 -90 41 -90 56 0 28 32 84 59 103 14 10 42 21 61 26 19 4 51 11 70 15
175 40 260 50 434 50 190 0 269 -8 401 -40 44 -10 153 -28 242 -39 90 -11 200
-29 245 -40 46 -11 151 -29 233 -41 83 -11 168 -25 190 -31 22 -5 57 -14 77
-20 21 -5 102 -18 180 -29 79 -11 177 -29 218 -39 41 -11 118 -27 170 -36 104
-18 149 -30 195 -50 17 -7 71 -20 120 -29 107 -19 176 -36 190 -47 9 -6 83
-23 295 -67 14 -2 30 -9 36 -14 7 -5 76 -22 155 -38 79 -16 157 -36 174 -44
16 -8 48 -17 70 -21 105 -18 187 -36 260 -60 140 -45 158 -44 258 11 15 9 60
24 100 35 40 11 83 27 96 36 13 8 56 26 95 38 39 12 96 34 126 48 30 14 73 30
95 36 22 6 50 13 62 16 13 4 29 12 36 19 7 7 57 28 111 45 54 18 109 39 121
47 12 8 49 21 81 30 32 8 73 23 91 34 17 10 71 31 120 46 48 15 97 33 108 40
11 7 62 27 114 44 52 17 100 35 107 41 7 5 47 21 89 34 42 13 88 31 103 40 15
8 69 29 121 45 52 17 100 35 106 40 6 5 44 20 85 33 41 14 98 35 125 47 28 12
83 33 123 46 41 12 79 27 85 32 7 5 57 24 112 43 55 19 102 36 105 40 3 3 46
19 95 36 50 17 115 41 145 53 30 13 64 26 75 30 60 22 81 34 130 73 79 62 107
122 113 245 4 87 2 103 -20 153 -36 79 -110 149 -190 177 -66 23 -135 28 -184
13 -16 -5 -54 -14 -84 -21 -30 -7 -82 -25 -115 -41 -33 -15 -80 -33 -105 -39
-25 -7 -72 -25 -105 -40 -33 -16 -80 -34 -105 -40 -25 -6 -72 -24 -105 -40
-33 -15 -80 -33 -105 -40 -25 -7 -74 -25 -110 -40 -36 -15 -85 -33 -110 -40
-25 -7 -72 -25 -105 -40 -33 -16 -87 -36 -120 -45 -33 -9 -75 -26 -93 -37 -18
-11 -48 -24 -65 -29 -18 -4 -57 -15 -89 -23 -51 -15 -62 -15 -120 0 -114 28
-123 31 -155 47 -31 17 -122 44 -175 54 -14 3 -35 13 -46 23 -11 10 -41 30
-68 43 -90 46 -194 155 -194 203 0 12 11 36 25 52 14 17 25 33 25 37 0 36 127
143 230 195 36 18 67 36 70 40 7 10 176 90 245 116 33 12 121 48 195 79 74 31
171 67 215 81 44 15 100 34 125 44 103 42 304 91 485 120 39 6 113 20 165 30
92 19 165 27 433 51 70 6 297 11 505 11 405 0 453 -5 567 -56 27 -13 73 -29
100 -36 28 -7 61 -21 75 -30 14 -9 41 -23 60 -30 19 -8 51 -23 70 -34 19 -10
53 -28 75 -38 22 -11 58 -28 80 -40 60 -31 86 -44 130 -64 22 -9 54 -27 70
-39 17 -11 50 -29 75 -40 25 -10 58 -29 73 -42 16 -12 56 -36 90 -53 34 -16
94 -48 132 -70 70 -41 136 -77 275 -151 41 -22 77 -44 80 -48 3 -5 32 -21 65
-36 32 -15 77 -39 98 -53 36 -24 48 -26 125 -24 77 1 91 5 141 35 63 37 146
132 155 179 12 59 6 176 -11 229 -14 42 -33 69 -88 125 -85 86 -84 85 -335
216 -41 21 -81 45 -90 52 -8 8 -42 26 -75 41 -33 16 -62 32 -65 36 -3 5 -38
25 -77 46 -154 82 -309 167 -333 182 -14 9 -50 28 -80 41 -30 13 -68 34 -85
46 -16 11 -41 25 -54 29 -13 4 -42 18 -65 31 -70 39 -139 74 -149 74 -5 0 -23
10 -40 23 -36 25 -103 57 -122 57 -7 0 -43 13 -81 28 -38 16 -94 33 -124 40
-30 6 -86 19 -125 27 -45 10 -162 19 -325 25 -140 5 -295 11 -345 13 -49 2
-137 -2 -195 -9z m-5470 -1308 c88 -16 208 -64 253 -102 18 -14 62 -55 98 -90
36 -35 70 -64 74 -64 11 0 103 -83 238 -215 68 -66 170 -164 228 -218 l104
-99 -24 -19 c-30 -25 -33 -24 -127 10 -47 17 -129 35 -204 45 -69 10 -170 28
-225 41 -98 24 -153 33 -320 56 -58 8 -103 22 -163 52 -70 34 -95 54 -162 127
-73 80 -80 92 -95 156 -18 79 -14 121 20 179 41 70 94 116 164 141 45 17 50
16 141 0z" />
                <path d="M3300 4930 c-233 -9 -564 -55 -619 -85 -14 -8 -68 -28 -120 -45 -51
-18 -107 -40 -125 -51 -17 -10 -38 -19 -46 -19 -8 0 -46 -16 -84 -35 -39 -19
-75 -35 -80 -35 -6 0 -33 -12 -61 -26 -77 -41 -97 -50 -140 -70 -22 -10 -51
-25 -65 -34 -14 -9 -41 -23 -60 -30 -19 -7 -57 -30 -85 -50 -27 -21 -88 -61
-135 -90 -47 -29 -110 -74 -140 -100 -68 -57 -85 -72 -132 -107 -122 -93 -157
-123 -263 -224 -68 -66 -139 -146 -171 -193 -54 -80 -101 -145 -129 -178 -8
-10 -28 -43 -44 -73 -16 -30 -39 -67 -50 -84 -12 -16 -21 -31 -21 -34 0 -3
-18 -36 -39 -74 -22 -37 -49 -99 -59 -138 -11 -38 -30 -89 -41 -112 -12 -23
-25 -74 -31 -113 -11 -78 -16 -312 -7 -327 3 -5 13 -51 22 -103 17 -97 24
-116 116 -282 76 -136 294 -377 410 -450 31 -20 60 -41 64 -47 14 -23 210
-149 275 -177 19 -8 67 -30 105 -49 39 -18 90 -41 115 -51 25 -9 56 -25 70
-34 27 -17 118 -54 160 -65 14 -3 45 -15 70 -25 25 -10 79 -28 120 -40 41 -12
95 -30 120 -40 25 -10 79 -28 120 -40 41 -12 95 -30 120 -40 49 -21 93 -34
215 -61 44 -10 109 -24 145 -33 36 -8 116 -25 178 -36 63 -12 131 -28 152 -35
21 -7 89 -21 152 -30 143 -21 269 -42 331 -55 61 -12 250 -36 452 -55 88 -9
230 -23 315 -31 225 -22 1896 -22 2110 0 246 25 448 44 610 56 85 6 189 18
230 25 175 32 251 44 360 55 63 7 160 23 215 36 55 13 164 32 243 44 78 11
162 25 185 31 23 6 101 23 172 38 72 15 166 39 210 53 71 23 136 40 350 94
112 28 140 36 230 64 50 15 131 38 180 50 50 12 95 26 100 30 6 4 69 22 140
40 72 18 135 36 140 40 6 5 66 22 135 40 69 17 129 35 134 41 6 5 17 9 25 9 9
0 45 9 81 19 36 11 83 24 105 30 78 22 341 100 410 121 39 12 92 28 118 35 26
7 53 18 60 22 7 5 32 15 57 23 25 7 88 35 140 61 98 50 203 137 251 209 13 19
29 41 36 48 26 27 35 97 31 239 -5 133 -7 144 -34 190 -16 26 -38 64 -49 84
-20 35 -291 299 -307 299 -10 0 -163 92 -219 132 -13 9 -69 30 -124 47 -55 17
-133 41 -172 55 -74 26 -260 46 -419 46 -58 0 -76 4 -99 22 l-28 22 7 145 c7
152 0 215 -34 321 -22 70 -41 108 -68 136 -11 12 -29 39 -40 60 -25 48 -178
212 -240 257 -26 19 -72 42 -102 52 -30 10 -83 31 -116 47 -58 27 -72 29 -223
35 -157 6 -185 4 -360 -29 -30 -6 -62 -14 -70 -18 -25 -13 -180 -86 -245 -114
-32 -14 -73 -41 -90 -59 -17 -18 -57 -54 -88 -79 -54 -44 -80 -67 -167 -148
-20 -19 -93 -87 -162 -150 -164 -152 -435 -423 -589 -590 -69 -74 -134 -144
-145 -155 -11 -12 -54 -59 -95 -106 -41 -46 -90 -99 -107 -118 -18 -19 -33
-38 -33 -41 0 -16 -93 -71 -141 -84 -30 -8 -66 -19 -80 -26 -23 -10 -41 -7
-135 26 -60 20 -119 44 -132 52 -12 8 -54 21 -94 28 -40 8 -79 21 -88 30 -14
14 -13 17 8 34 12 10 45 26 72 35 83 28 179 89 266 172 13 12 40 34 59 49 20
15 45 43 55 63 10 20 28 45 40 56 41 37 89 121 101 175 6 29 9 87 7 129 -4 66
-11 88 -51 166 -50 98 -60 114 -127 188 -92 103 -132 139 -256 233 -49 37 -91
70 -94 73 -3 4 -23 18 -45 32 -22 14 -85 55 -140 91 -55 36 -116 74 -135 84
-19 11 -49 29 -67 42 -17 12 -34 22 -38 22 -4 0 -52 22 -108 49 -56 28 -118
57 -137 65 -19 8 -46 22 -60 30 -30 17 -95 46 -105 46 -4 0 -19 8 -33 18 -15
10 -58 27 -97 37 -38 10 -99 29 -134 42 -36 13 -101 33 -145 44 -45 10 -100
29 -124 40 -24 12 -98 29 -170 40 -69 10 -155 28 -191 38 -91 28 -226 48 -447
67 -104 8 -234 19 -289 24 -111 10 -413 10 -665 0z m665 -640 c78 -13 279 -37
406 -50 64 -6 140 -18 170 -26 102 -29 124 -34 224 -49 55 -9 138 -29 185 -44
47 -16 105 -34 130 -41 76 -19 113 -31 170 -52 94 -35 104 -39 155 -63 28 -13
84 -39 125 -58 227 -106 315 -152 405 -214 94 -65 141 -115 159 -171 16 -46
16 -53 1 -88 -20 -49 -38 -68 -100 -109 -102 -67 -160 -97 -254 -129 -53 -19
-127 -46 -166 -60 -38 -14 -86 -26 -105 -26 -44 0 -122 24 -164 49 -17 10 -62
29 -101 40 -38 12 -92 32 -120 46 -27 13 -75 31 -106 40 -31 9 -64 22 -75 29
-10 7 -57 26 -104 41 -47 15 -98 35 -115 45 -16 10 -46 21 -65 25 -19 4 -75
24 -125 45 -49 20 -110 43 -135 50 -25 7 -61 21 -80 31 -97 48 -226 83 -310
83 -80 0 -208 -98 -261 -200 -19 -38 -24 -62 -23 -118 1 -118 14 -147 102
-222 42 -37 88 -71 102 -77 14 -5 39 -16 57 -24 18 -7 60 -22 93 -33 34 -11
73 -26 88 -34 15 -8 68 -29 117 -46 50 -17 98 -36 109 -41 10 -6 52 -22 95
-36 42 -14 93 -34 115 -45 21 -11 72 -30 113 -43 41 -13 80 -28 86 -33 7 -5
55 -23 107 -41 52 -18 113 -41 135 -51 22 -10 65 -26 96 -35 31 -9 64 -22 75
-29 10 -7 51 -23 89 -35 39 -13 93 -33 120 -46 28 -13 82 -33 120 -45 39 -12
93 -32 120 -45 28 -13 70 -29 95 -36 25 -7 70 -25 100 -40 30 -14 84 -34 120
-44 36 -9 76 -24 89 -32 13 -9 56 -26 95 -38 39 -12 96 -34 126 -48 30 -14 75
-31 100 -37 25 -7 72 -25 105 -40 33 -16 80 -34 104 -40 24 -6 68 -23 99 -37
59 -27 112 -26 169 2 15 7 69 21 118 29 119 22 187 38 201 48 6 5 69 19 140
33 71 14 165 36 209 49 44 13 132 34 195 45 63 12 119 26 125 30 14 11 44 19
170 41 61 11 142 31 180 44 39 13 111 29 160 36 50 7 115 19 145 27 30 8 71
19 90 24 19 5 98 18 175 30 76 11 157 27 180 34 66 21 132 33 305 55 91 11
179 25 195 30 35 10 131 25 270 40 55 6 146 18 201 27 187 28 636 -1 708 -46
17 -11 48 -29 68 -41 40 -22 61 -50 53 -72 -7 -17 -136 -77 -245 -113 -47 -16
-94 -33 -106 -38 -12 -5 -79 -24 -150 -42 -267 -68 -407 -106 -423 -114 -9 -4
-56 -18 -106 -30 -126 -31 -167 -42 -190 -52 -11 -5 -78 -24 -150 -43 -71 -19
-157 -42 -190 -51 -33 -9 -76 -21 -95 -25 -19 -5 -80 -22 -135 -38 -55 -17
-127 -35 -160 -42 -33 -7 -91 -23 -130 -36 -59 -19 -129 -36 -305 -72 -14 -2
-29 -8 -35 -12 -12 -9 -89 -24 -205 -40 -47 -7 -137 -24 -200 -40 -63 -15
-175 -35 -249 -44 -124 -16 -161 -22 -266 -46 -71 -16 -284 -40 -500 -56 -115
-8 -257 -19 -315 -24 -197 -17 -994 -30 -1505 -24 -495 6 -562 10 -880 48 -66
8 -178 20 -250 27 -71 6 -166 18 -210 25 -44 8 -154 25 -245 39 -91 14 -199
35 -240 45 -41 11 -147 33 -235 49 -88 16 -177 36 -198 45 -21 8 -77 25 -123
36 -47 11 -106 29 -132 39 -26 11 -93 31 -150 46 -57 14 -111 30 -120 35 -9 5
-48 19 -87 31 -38 11 -110 40 -160 64 -49 23 -134 64 -189 90 -54 26 -108 55
-119 66 -12 10 -24 19 -28 19 -4 0 -34 17 -66 38 -32 21 -71 44 -88 52 -16 8
-75 60 -131 115 -72 71 -108 115 -123 150 -12 28 -30 67 -41 87 -48 88 -47
329 1 435 10 23 19 46 19 51 0 6 15 32 33 59 17 27 38 60 45 73 7 14 27 41 45
61 18 20 43 51 57 70 34 46 136 144 188 180 23 17 42 33 42 37 0 4 14 16 30
25 17 10 50 35 74 55 89 75 131 107 151 118 11 6 62 35 113 65 51 30 121 70
155 89 34 19 84 50 112 68 27 18 66 37 87 43 20 5 40 14 43 19 3 5 27 16 53
23 26 8 97 35 157 60 191 78 217 86 345 107 69 11 157 28 195 38 102 25 666
41 780 22z m5243 -604 c55 -28 126 -98 141 -139 26 -69 3 -173 -59 -265 -30
-45 -52 -68 -78 -79 -21 -8 -59 -30 -87 -49 -32 -22 -71 -38 -110 -44 -33 -6
-91 -20 -130 -30 -38 -11 -128 -28 -200 -40 -71 -11 -148 -27 -170 -34 -88
-30 -308 -65 -339 -53 -32 12 -17 49 40 101 31 28 84 80 118 115 110 115 191
195 267 263 108 97 135 119 209 175 30 22 64 44 75 48 168 64 243 72 323 31z" />
        </g>
</svg>